<?xml version="1.0" encoding="utf-8"?>
<!-- Generator: Adobe Illustrator 19.2.1, SVG Export Plug-In . SVG Version: 6.00 Build 0)  -->
<svg version="1.1" id="layer" xmlns="http://www.w3.org/2000/svg" xmlns:xlink="http://www.w3.org/1999/xlink" x="0px" y="0px"
	 viewBox="0 0 652 652" style="enable-background:new 0 0 652 652;" xml:space="preserve">
<style type="text/css">
	.st0{fill:#EC2C45;}
</style>
<path class="st0" d="M619.9,299.4c-0.5,0-1-0.5-1-1v-5.9l-2.5,6.5c-0.1,0.2-0.3,0.4-0.5,0.4c-0.2,0-0.4-0.2-0.5-0.4l-2.5-6.5v5.9
	c0,0.5-0.4,1-1,1c-0.6,0-1-0.5-1-1v-7c0-0.9,0.7-1.6,1.6-1.6c0.7,0,1.3,0.4,1.5,1.1l1.9,4.9l1.9-4.9c0.2-0.6,0.8-1.1,1.5-1.1
	c0.9,0,1.6,0.7,1.6,1.6v7C620.9,298.9,620.4,299.4,619.9,299.4 M605.4,299.4c-0.6,0-1-0.5-1-1v-6.8h-1.9c-0.5,0-0.9-0.4-0.9-0.9
	c0-0.5,0.4-0.9,0.9-0.9h5.8c0.5,0,0.9,0.4,0.9,0.9c0,0.5-0.4,0.9-0.9,0.9h-1.9v6.8C606.4,298.9,606,299.4,605.4,299.4"/>
<path class="st0" d="M91.8,286.9c0-3.4,1-6.5,2.8-9.1c-5.3,1.6-9.3,6.5-9.3,12.3v10.3l6.4,0.3V286.9z"/>
<path class="st0" d="M85.4,357.9c0,5.9,3.9,10.8,9.3,12.3c-1.8-2.6-2.8-5.7-2.8-9.1v-19.4h-6.4V357.9z"/>
<path class="st0" d="M101.5,341.8h-6.4v19.4c0,5.9,3.9,10.8,9.3,12.3c-1.8-2.6-2.8-5.7-2.8-9.1V341.8z"/>
<path class="st0" d="M101.5,283.7c0-3.4,1.1-6.5,2.8-9.1c-5.3,1.6-9.3,6.5-9.3,12.3v14l6.4,0.3V283.7z"/>
<path class="st0" d="M28.8,279.6c-4.7,2.8-7.9,7.9-7.9,13.8v61.3c0,5.9,3.2,11,7.9,13.8c-0.9-2.3-1.5-4.7-1.5-7.4v-74.2
	C27.3,284.3,27.8,281.8,28.8,279.6"/>
<path class="st0" d="M37,280.5c0-2.6,0.5-5.1,1.5-7.4c-4.7,2.8-7.9,7.9-7.9,13.8v74.2c0,6.9,4.4,12.8,10.5,15.1
	c-2.6-3.3-4.1-7.4-4.1-11.8V280.5z"/>
<path class="st0" d="M117.6,270.8c-7.1,0-12.9,5.8-12.9,12.9v21L72.5,303v-22.6c0-8.9-7.2-16.1-16.1-16.1c-8.9,0-16.1,7.2-16.1,16.1
	v83.9c0,8.9,7.2,16.1,16.1,16.1c8.9,0,16.1-7.2,16.1-16.1v-25.8h32.3v25.8c0,7.1,5.8,12.9,12.9,12.9c7.1,0,12.9-5.8,12.9-12.9v-80.6
	C130.5,276.6,124.7,270.8,117.6,270.8"/>
<path class="st0" d="M229,349.3v-23.9h-34.8v23.9c0,2.6-2.1,4.7-4.6,4.7c-2.6,0-4.8-2.2-4.8-4.7v-54.5c0-2.5,2.2-4.7,4.7-4.7
	c2.6,0,4.7,2.2,4.7,4.7v22.2H229v-22.2c0-2.5,2.1-4.7,4.7-4.7c2.6,0,4.7,2.2,4.7,4.7v54.5c0,2.6-2.1,4.7-4.7,4.7
	C231.1,354.1,229,351.9,229,349.3"/>
<path class="st0" d="M282.3,330.7c0-8.6-5-16.3-14.2-16.3c-9.1,0-14.2,7.7-14.2,16.3c0,8.7,5.1,16.4,14.2,16.4
	C277.3,347.2,282.3,339.4,282.3,330.7 M245.1,330.7c0-13.1,8.9-23.9,23-23.9c14.3,0,23,10.8,23,23.9c0,13.2-8.8,24-23,24
	C254,354.7,245.1,344,245.1,330.7"/>
<path class="st0" d="M326.6,327.4h27.9c-0.2-6-4.3-13.6-13.9-13.6C331.4,313.9,327.1,321.2,326.6,327.4 M340.6,306.9
	c13.7,0,22.2,10.7,22.2,22.7c0,2.6-1.8,4.1-5,4.1h-31.1c0.7,7.7,6.3,14.2,15.5,14.2c3.9,0,7.9-1.2,11.3-3.7c0.5-0.4,1.1-0.5,1.9-0.5
	c1.9,0,3.4,1.5,3.4,3.4c0,1.2-0.6,2.2-1.5,2.8c-4.5,3.3-9.9,4.9-16,4.9c-13.6,0-23.6-9.6-23.6-24
	C317.7,317.5,327.3,306.9,340.6,306.9"/>
<path class="st0" d="M368.2,349.8v-55.4c0-2.3,1.9-4.2,4.2-4.2c2.3,0,4.3,1.9,4.3,4.2v55.4c0,2.4-2,4.3-4.3,4.3
	C370.1,354.1,368.2,352.2,368.2,349.8"/>
<path class="st0" d="M382.2,346.6c0-2.1,1.6-3.7,3.7-3.7c0.8,0,1.5,0.3,2.1,0.7c3.5,2.6,8,4.3,12.8,4.3c6.4,0,9.8-2.6,9.8-6.5
	c0-4.5-5.2-6-11-7.4c-7.7-1.8-16.8-3.9-16.8-13.7c0-7.3,6.2-13.5,17.4-13.5c6.3,0,11.3,1.9,15.2,4.7c0.8,0.7,1.5,1.6,1.5,2.8
	c0,1.9-1.6,3.5-3.5,3.5c-0.7,0-1.4-0.3-1.9-0.7c-2.9-2.2-6.9-3.5-11.2-3.5c-5.8,0-9.4,2.3-9.4,5.9c0,4,4.9,5.3,10.6,6.6
	c7.9,1.8,17.4,4,17.4,14.4c0,7.8-6.4,14-18.4,14c-6.3,0-12-1.6-16.6-5.1C382.8,349,382.2,347.8,382.2,346.6"/>
<path class="st0" d="M429.9,342.8c3.2,0,5.9,2.7,5.9,5.9c0,3.2-2.7,5.9-5.9,5.9c-3.2,0-5.9-2.7-5.9-5.9
	C424.1,345.5,426.7,342.8,429.9,342.8"/>
<path class="st0" d="M517.2,330.7c0-8.6-5-16.3-14.2-16.3c-9.1,0-14.2,7.7-14.2,16.3c0,8.7,5.1,16.4,14.2,16.4
	C512.2,347.2,517.2,339.4,517.2,330.7 M480,330.7c0-13.1,8.9-23.9,23-23.9c14.3,0,23,10.8,23,23.9c0,13.2-8.8,24-23,24
	C488.9,354.7,480,344,480,330.7"/>
<path class="st0" d="M596.4,320.6v29.2c0,2.3-2,4.2-4.3,4.2c-2.3,0-4.2-1.9-4.2-4.2v-26.6c0-5.3-2.4-7.8-7.9-7.8
	c-4.6,0-9.2,5.2-11.3,8.5v26c0,2.3-1.9,4.2-4.3,4.2c-2.3,0-4.3-1.9-4.3-4.2v-26.6c0-5.3-2.3-7.8-8-7.8c-4.4,0-8.9,5.5-11.2,8.8v25.6
	c0,2.3-2,4.2-4.2,4.2c-2.4,0-4.3-1.9-4.3-4.2v-38.1c0-2.4,1.9-4.3,4.1-4.3c2.4,0,4.3,1.9,4.3,4.3v2.6c1.9-2.8,7.9-7.6,14.7-7.6
	c6.9,0,11,3.6,12.4,8.5c2.6-4.3,8.8-8.5,15.5-8.5C592,306.9,596.4,311.5,596.4,320.6"/>
<path class="st0" d="M461.4,306.9c6.5,0,11,2.1,14.5,5.3c0.7,0.7,1.3,1.8,1.3,2.8c0,2.2-1.7,3.9-3.8,3.9c-1,0-1.9-0.4-2.6-0.9
	c-2.6-2.5-5.6-3.5-9.2-3.5c-9,0-14.7,6.9-14.7,16.3c0,9.4,5.8,16.1,14.7,16.4c6.1,0.2,12.1-4.2,17-11.9c0.6-1,1.5-2.7,2.2-3.7
	c1.4-1.8,2.4-0.9,3.2-0.1c1.5,1.6,1.5,5.3,0.5,7.1c-2.8,5.1-5.1,7.5-7.7,10.1c-3.7,3.6-9.1,6-15.7,6c-13.8,0-23.2-10.3-23.2-24
	C438.1,317.1,447.6,306.9,461.4,306.9"/>
<path class="st0" d="M323.8,346.6c0,1.6-4.6,5.2-7.9,6.8c-1.9,0.9-3.8,1.3-6.5,1.3c-7.2,0-10.9-4.1-10.9-11.2v-28h-4.3
	c-2,0-3.8-1.7-3.8-3.8c0-2,1.8-3.7,3.8-3.7h4.3v-8.7c0-2.4,1.9-4.3,4.3-4.3c2.3,0,4.2,1.9,4.2,4.3v8.7h6c2.1,0,3.8,1.7,3.8,3.7
	c0,2.1-1.7,3.8-3.8,3.8h-6v26.1c0,3.2,1.5,5.6,4.4,5.6c5.2,0,9.3-8.1,11.6-8.1C325.2,339.1,323.8,344.5,323.8,346.6"/>
</svg>
