<?xml version="1.0" encoding="utf-8"?>
<!-- Generator: Adobe Illustrator 19.2.1, SVG Export Plug-In . SVG Version: 6.00 Build 0)  -->
<svg version="1.1" id="layer" xmlns="http://www.w3.org/2000/svg" xmlns:xlink="http://www.w3.org/1999/xlink" x="0px" y="0px"
	 viewBox="0 0 652 652" style="enable-background:new 0 0 652 652;" xml:space="preserve">
<style type="text/css">
	.st0{fill:#297CBB;}
</style>
<path class="st0" d="M183,354.9c-11.1-2.4-18.5-8.7-23.4-19.7v21h-20.9v-39.6c-1.2-8.7-13.5-8.7-14.7,0v39.5h-20.9v-22.2
	c-5,13.5-14.7,19.7-29.6,21c-14.7,0-24.6-7.4-30.8-19.7v21H20.7v-92.5h22.1v45.6c5-9.9,11.1-14.9,20.9-18.5
	c17.3-3.8,32,3.8,39.3,19.7c5-13.5,14.7-21,29.6-21c13.5,1.2,23.4,7.4,27,21c3.8-9.9,12.3-17.3,24.6-19.7c17.3-2.4,29.6,5,36.9,19.7
	v-46.8h22.1v26h20.9v40.4c0,7.4,11.1,7.4,11.1,0v-40.7H296v70.4c0,7.4-2.4,12.3-7.4,18.5c-6.2,6.2-12.3,7.4-20.9,8.7
	c-11.1,1.2-18.5-2.4-27-8.7l12.3-16.1c6.2,5,15.9,5,19.7-2.4c1.2-2.4,1.2-6.2,1.2-9.9c-11.1,11.1-28.2,6.2-32-8.7v14.9h-22.1v-28.4
	h-43.1c2.4,9.9,13.5,13.5,22.1,6.2l18.5,2.4C217.5,341.3,207.6,357.3,183,354.9L183,354.9z M84.7,322.8c0-7.4-6.2-13.5-13.5-13.5
	c-7.4,0-13.5,6.2-13.5,13.5s6.2,13.5,13.5,13.5C79.7,336.3,85.9,330.2,84.7,322.8z M175.7,319.1h27
	C199.1,305.5,180.6,305.5,175.7,319.1z"/>
<path class="st0" d="M620.7,348.8c0,3.8-15.9,9.9-25.8,3.8c-9.9-6.2-9.8-14.9-9.8-24.8h-44.3c5,12.3,19.7,11.1,24.6,5l18.5,3.8
	c-6.2,21-24.6,24.6-41.7,18.5c-9.9-5-14.7-9.9-18.5-18.5v21h-20.9c0-13.5,0-27.2,0-40.7c-1.2-8.7-14.7-8.7-14.7,0v39.3h-35.6v-12.3
	c0-5-5,12.3-12.3,12.3c-14.7,1.2-27-6.2-33.2-19.7v19.7h-22.1v-19.8c-6.2,13.5-22.1,21-38.1,17.3l-2.4-1.2c0,0,1.2,22.2,1.2,28.4
	h-22.1v-57.9c0-27.2,29.6-43.2,51.6-27.2c3.8,3.8,7.4,8.7,9.9,13.5v-45.6h22.1v45.6c7.4-13.5,20.9-21,36.9-18.5
	c11.1,2.4,18.5,8.7,23.4,19.7c6.2-17.3,22.1-24.6,40.5-18.5c8.6,3.8,12.3,9.9,15.9,18.5c7.4-17.3,24.6-24.6,43.1-18.5
	c8.6,5,14.7,9.9,18.5,18.5v-34.5h20.9v13.5H620V309h-13.5c0,7.4-1.2,13.5,1.2,19.7c1.2,3.8,7.4,5,12.3,1.2l0,0L620.7,348.8
	L620.7,348.8z M369.9,322.8c0-7.4-6.2-13.5-13.5-13.5c-7.4,0-13.5,6.2-13.5,13.5s6.2,13.5,13.5,13.5
	C363.7,336.3,369.9,330.2,369.9,322.8z M449.9,322.8c0-7.4-6.2-13.5-13.5-13.5l0,0c-7.4,0-13.5,6.2-13.5,13.5s6.2,13.5,13.5,13.5
	C443.7,336.3,449.9,330.2,449.9,322.8z M566.7,317.9c-3.8-13.5-22.1-12.3-25.8,0H566.7z"/>
<path class="st0" d="M195.3,278.4l-14.7-6.2c20.9-57.9,75.1-100,139-100s118,41.9,137.7,100l-14.7,4.8
	c-17.3-51.8-66.3-87.5-122.9-87.5S213.8,226.6,195.3,278.4z"/>
<path class="st0" d="M442.4,366l14.7,6.2c-19.7,56.7-73.7,98.6-137.7,97.4c-63.9,0-118-40.7-137.7-97.4l14.7-4.8
	c17.3,50.6,66.3,86.3,122.9,86.3S425.3,417.8,442.4,366L442.4,366z"/>
</svg>
